<svg width="225" height="71" viewBox="0 0 225 71" fill="none" xmlns="http://www.w3.org/2000/svg">
<path d="M115.737 39.9375L141.2 71L93.9124 44.375L108.462 31.0625L83 0L130.287 26.625L115.737 39.9375Z" fill="#ECC700"/>
<path d="M7.38 32.388H0V25.8H23.256V32.388H15.876V51H7.38V32.388Z" fill="white"/>
<path d="M45.9939 41.136C45.9939 41.256 45.9579 41.892 45.8859 43.044H32.2059C32.4939 43.788 32.9739 44.364 33.6459 44.772C34.3179 45.156 35.1579 45.348 36.1659 45.348C37.0299 45.348 37.7499 45.24 38.3259 45.024C38.9259 44.808 39.5739 44.436 40.2699 43.908L44.5179 48.192C42.5979 50.304 39.7299 51.36 35.9139 51.36C33.5379 51.36 31.4499 50.928 29.6499 50.064C27.8499 49.176 26.4579 47.952 25.4739 46.392C24.4899 44.832 23.9979 43.08 23.9979 41.136C23.9979 39.168 24.4779 37.416 25.4379 35.88C26.4219 34.32 27.7539 33.108 29.4339 32.244C31.1379 31.38 33.0459 30.948 35.1579 30.948C37.1499 30.948 38.9619 31.344 40.5939 32.136C42.2499 32.928 43.5579 34.092 44.5179 35.628C45.5019 37.164 45.9939 39 45.9939 41.136ZM35.2299 36.492C34.3899 36.492 33.6939 36.72 33.1419 37.176C32.5899 37.632 32.2299 38.28 32.0619 39.12H38.3979C38.2299 38.304 37.8699 37.668 37.3179 37.212C36.7659 36.732 36.0699 36.492 35.2299 36.492Z" fill="white"/>
<path d="M60.9455 51.36C58.7135 51.36 56.7095 50.928 54.9335 50.064C53.1815 49.2 51.8015 47.988 50.7935 46.428C49.8095 44.868 49.3175 43.104 49.3175 41.136C49.3175 39.168 49.8095 37.416 50.7935 35.88C51.8015 34.32 53.1815 33.108 54.9335 32.244C56.7095 31.38 58.7135 30.948 60.9455 30.948C63.3455 30.948 65.3975 31.464 67.1015 32.496C68.8055 33.528 69.9815 34.956 70.6295 36.78L64.3295 39.876C63.5615 38.148 62.4215 37.284 60.9095 37.284C59.9495 37.284 59.1455 37.62 58.4975 38.292C57.8735 38.964 57.5615 39.912 57.5615 41.136C57.5615 42.384 57.8735 43.344 58.4975 44.016C59.1455 44.688 59.9495 45.024 60.9095 45.024C62.4215 45.024 63.5615 44.16 64.3295 42.432L70.6295 45.528C69.9815 47.352 68.8055 48.78 67.1015 49.812C65.3975 50.844 63.3455 51.36 60.9455 51.36Z" fill="white"/>
<path d="M87.9899 30.948C90.4139 30.948 92.3579 31.68 93.8219 33.144C95.3099 34.608 96.0539 36.816 96.0539 39.768V51H87.9179V41.172C87.9179 38.916 87.1139 37.788 85.5059 37.788C84.5939 37.788 83.8499 38.112 83.2739 38.76C82.7219 39.384 82.4459 40.38 82.4459 41.748V51H74.3099V24.288H82.4459V32.892C83.9579 31.596 85.8059 30.948 87.9899 30.948Z" fill="white"/>
<path d="M111.035 51.576C108.947 51.576 106.907 51.348 104.915 50.892C102.947 50.412 101.327 49.776 100.055 48.984L102.791 42.792C103.991 43.488 105.335 44.052 106.823 44.484C108.311 44.892 109.739 45.096 111.107 45.096C112.283 45.096 113.123 44.988 113.627 44.772C114.131 44.532 114.383 44.184 114.383 43.728C114.383 43.2 114.047 42.804 113.375 42.54C112.727 42.276 111.647 41.988 110.135 41.676C108.191 41.268 106.571 40.836 105.275 40.38C103.979 39.9 102.851 39.132 101.891 38.076C100.931 36.996 100.451 35.544 100.451 33.72C100.451 32.136 100.895 30.696 101.783 29.4C102.671 28.104 103.991 27.084 105.743 26.34C107.519 25.596 109.667 25.224 112.187 25.224C113.915 25.224 115.607 25.416 117.263 25.8C118.943 26.16 120.419 26.7 121.691 27.42L119.135 33.576C116.663 32.328 114.323 31.704 112.115 31.704C109.931 31.704 108.839 32.232 108.839 33.288C108.839 33.792 109.163 34.176 109.811 34.44C110.459 34.68 111.527 34.944 113.015 35.232C114.935 35.592 116.555 36.012 117.875 36.492C119.195 36.948 120.335 37.704 121.295 38.76C122.279 39.816 122.771 41.256 122.771 43.08C122.771 44.664 122.327 46.104 121.439 47.4C120.551 48.672 119.219 49.692 117.443 50.46C115.691 51.204 113.555 51.576 111.035 51.576Z" fill="white"/>
<path d="M152.911 30.948C155.287 30.948 157.183 31.68 158.599 33.144C160.039 34.608 160.759 36.816 160.759 39.768V51H152.623V41.172C152.623 38.916 151.891 37.788 150.427 37.788C149.659 37.788 149.035 38.076 148.555 38.652C148.099 39.228 147.871 40.14 147.871 41.388V51H139.735V41.172C139.735 38.916 139.003 37.788 137.539 37.788C136.771 37.788 136.147 38.076 135.667 38.652C135.211 39.228 134.983 40.14 134.983 41.388V51H126.847V31.308H134.587V33.144C136.051 31.68 137.911 30.948 140.167 30.948C141.487 30.948 142.675 31.2 143.731 31.704C144.787 32.184 145.651 32.928 146.323 33.936C147.115 32.976 148.075 32.244 149.203 31.74C150.331 31.212 151.567 30.948 152.911 30.948Z" fill="white"/>
<path d="M174.909 30.948C178.365 30.948 181.005 31.728 182.829 33.288C184.653 34.824 185.565 37.2 185.565 40.416V51H178.005V48.408C177.069 50.376 175.209 51.36 172.425 51.36C170.865 51.36 169.533 51.096 168.429 50.568C167.349 50.016 166.521 49.284 165.945 48.372C165.393 47.436 165.117 46.392 165.117 45.24C165.117 43.296 165.861 41.82 167.349 40.812C168.837 39.804 171.093 39.3 174.117 39.3H177.393C177.129 37.764 175.893 36.996 173.685 36.996C172.797 36.996 171.897 37.14 170.985 37.428C170.073 37.692 169.293 38.064 168.645 38.544L166.053 33.18C167.181 32.484 168.537 31.944 170.121 31.56C171.729 31.152 173.325 30.948 174.909 30.948ZM174.873 46.464C175.449 46.464 175.965 46.308 176.421 45.996C176.877 45.684 177.213 45.216 177.429 44.592V43.224H175.413C173.757 43.224 172.929 43.776 172.929 44.88C172.929 45.336 173.097 45.72 173.433 46.032C173.793 46.32 174.273 46.464 174.873 46.464Z" fill="white"/>
<path d="M198.621 33.432C200.061 31.776 202.185 30.948 204.993 30.948V38.148C204.345 38.052 203.745 38.004 203.193 38.004C200.409 38.004 199.017 39.42 199.017 42.252V51H190.881V31.308H198.621V33.432Z" fill="white"/>
<path d="M224.134 50.316C222.91 51.012 221.242 51.36 219.13 51.36C216.37 51.36 214.246 50.7 212.758 49.38C211.27 48.036 210.526 46.032 210.526 43.368V38.328H207.826V32.388H210.526V26.88H218.662V32.388H222.694V38.328H218.662V43.296C218.662 43.896 218.818 44.364 219.13 44.7C219.442 45.036 219.85 45.204 220.354 45.204C221.05 45.204 221.662 45.024 222.19 44.664L224.134 50.316Z" fill="white"/>
</svg>
